# xmcd CD database file
#
# Track frame offsets:
#	150
#	15505
#	35445
#	50810
#
# Disc length: 941 seconds
#
# Revision: 0
# Processed by: cddbd v1.5.1PL0 Copyright (c) Steve Scherf et al.
# Submitted via: CDex 1.51
#
DISCID=2b03ab04
DTITLE=山形ユキオ、Salia - 百獣戦隊ガオレンジャー 主題歌
DYEAR=2001
DGENRE=Anime
TTITLE0=ガオレンジャー吼えろ!!
TTITLE1=ヒーリン' ユー
TTITLE2=ガオレンジャー吼えろ!! (カラオケ)
TTITLE3=ヒーリン' ユー (カラオケ)
EXTD=YEAR: 2001
EXTT0=
EXTT1=
EXTT2=
EXTT3=
PLAYORDER=
